<?xml version="1.0" encoding="utf-8"?>
<!-- Generator: Moho 14.2 build 20240604 -->
<!DOCTYPE svg PUBLIC "-//W3C//DTD SVG 1.1//EN" "http://www.w3.org/Graphics/SVG/1.1/DTD/svg11.dtd">
<svg version="1.1" id="Frame_0" xmlns="http://www.w3.org/2000/svg" xmlns:xlink="http://www.w3.org/1999/xlink" width="24px" height="20px">
<g id="icon">
<path id="white" fill="#ffffff" fill-rule="evenodd" stroke="none" d="M 19.000 3.000 C 19.000 3.000 19.000 4.000 19.000 4.000 C 19.000 4.000 20.000 4.000 20.000 4.000 C 20.000 4.000 20.000 3.000 20.000 3.000 C 20.000 3.000 19.000 3.000 19.000 3.000 M 4.000 17.000 C 4.000 16.999 4.000 5.001 4.000 5.000 C 4.002 5.000 19.998 5.000 20.000 5.000 C 20.000 5.001 20.000 16.999 20.000 17.000 C 19.998 17.000 4.002 17.000 4.000 17.000 M 3.000 18.000 C 3.000 17.998 3.000 2.002 3.000 2.000 C 3.002 2.000 20.998 2.000 21.000 2.000 C 21.000 2.002 21.000 17.998 21.000 18.000 C 20.998 18.000 3.002 18.000 3.000 18.000 Z"/>
<path id="color" fill="#e0a000" fill-rule="evenodd" stroke="none" d="M 8.000 3.000 C 8.000 3.000 8.000 4.000 8.000 4.000 C 8.000 4.000 9.000 4.000 9.000 4.000 C 9.000 4.000 9.000 3.000 9.000 3.000 C 9.000 3.000 8.000 3.000 8.000 3.000 M 6.000 3.000 C 6.000 3.000 6.000 4.000 6.000 4.000 C 6.000 4.000 7.000 4.000 7.000 4.000 C 7.000 4.000 7.000 3.000 7.000 3.000 C 7.000 3.000 6.000 3.000 6.000 3.000 M 4.000 3.000 C 4.000 3.000 4.000 4.000 4.000 4.000 C 4.000 4.000 5.000 4.000 5.000 4.000 C 5.000 4.000 5.000 3.000 5.000 3.000 C 5.000 3.000 4.000 3.000 4.000 3.000 M 19.000 8.000 C 19.000 8.000 19.000 6.000 19.000 6.000 C 18.999 6.000 5.001 6.000 5.000 6.000 C 5.000 6.001 5.000 11.999 5.000 12.000 C 5.001 12.000 17.999 12.000 18.000 12.000 C 18.000 12.000 18.000 14.000 18.000 14.000 C 17.999 14.000 5.001 14.000 5.000 14.000 C 5.000 14.000 5.000 16.000 5.000 16.000 C 5.001 16.000 18.999 16.000 19.000 16.000 C 19.000 15.999 19.000 10.001 19.000 10.000 C 18.999 10.000 6.001 10.000 6.000 10.000 C 6.000 10.000 6.000 8.000 6.000 8.000 C 6.001 8.000 18.999 8.000 19.000 8.000 Z"/>
</g>
</svg>
